<svg xmlns="http://www.w3.org/2000/svg"  viewBox="0 0 932 908" width="500px" height="500px"><path d="M1848 7672c-141-214-251-423-338-642-238-596-296-1327-154-1945 66-285 143-502 270-760 132-270 268-475 469-705 116-134 2326-2350 2343-2350 7 0 14 1 17 3 11 5 5 2488-6 2510-16 32-2051 2067-2061 2061-4-3-8-63-8-134 0-435 144-898 391-1255 96-140 230-285 576-629l353-351 0-187c0-103-4-189-8-192-12-7-1006 991-1084 1089-234 292-404 634-497 1001-53 208-66 332-65 624 1 254 3 286 28 420 35 191 50 257 59 266 4 4 525-511 1157-1145 633-634 1155-1151 1161-1149 13 4 13 1032 0 1056-7 12-2459 2470-2511 2517-13 12-25-2-92-103zM6004 6520l-1259-1259-5-1988c-4-1464-2-1992 6-2001 9-11 84 59 365 338 195 194 362 365 371 379 17 24 18 112 18 1484 0 1227 2 1461 13 1478 28 39 250 260 259 257 5-2 8-581 8-1430 0-1405 0-1427 19-1438 11-5 23-10 27-10 13 0 675 672 695 705 18 29 19 85 19 1478 0 1245 2 1452 14 1475 8 15 125 137 259 271 225 223 246 242 256 223 6-11 24-87 40-169 115-576 32-1173-232-1687l-52-101-3-589c-1-324 1-593 6-598 11-11 329 334 419 454 77 103 162 227 191 279 156 281 212 397 287 604 60 167 127 434 161 650 25 156 28 194 28 465 1 315-8 419-60 675-73 366-216 734-414 1065-73 122-159 250-169 250-4 0-574-567-1267-1260z" transform="matrix(.1 0 0 -.1 0 908)"/></svg>